<?xml version="1.0" ?><!DOCTYPE svg  PUBLIC '-//W3C//DTD SVG 1.1//EN'  'http://www.w3.org/Graphics/SVG/1.1/DTD/svg11.dtd'><svg height="50px" id="Livello_1" style="enable-background:new 0 0 50 50;" version="1.1" viewBox="0 0 50 50" width="50px" xml:space="preserve" xmlns="http://www.w3.org/2000/svg" xmlns:xlink="http://www.w3.org/1999/xlink"><g><path d="M46.432,24.969c0,5.916-2.377,11.281-6.219,15.183c-3.902,3.902-9.268,6.279-15.182,6.279   c-5.915,0-11.28-2.377-15.183-6.279s-6.28-9.268-6.28-15.183c0-5.914,2.378-11.28,6.28-15.183   c3.902-3.841,9.268-6.219,15.183-6.219c5.915,0,11.28,2.378,15.182,6.219C44.055,13.689,46.432,19.055,46.432,24.969z    M22.287,20.702c0.793-0.61,1.89-0.976,2.865-0.976c1.038,0,2.073,0.365,2.866,0.976h7.623v-1.464c0-2.927-2.379-5.305-5.367-5.305   H19.787c-2.866,0-5.244,2.378-5.244,5.305v1.464H22.287z M29.787,22.591c0.305,0.731,0.365,1.464,0.365,2.195   c0,2.805-2.256,5.061-5,5.061c-2.683,0-4.999-2.256-4.999-5.061c0-0.793,0.243-1.464,0.487-2.195h-6.098v7.317   c0,2.865,2.378,5.244,5.244,5.244h10.61c2.926,0,5.305-2.379,5.305-5.244v-7.317H29.787z M25.213,22.653   c-1.098,0-2.134,1.036-2.134,2.134c0,1.158,1.036,2.012,2.134,2.012c0.549,0,1.037-0.184,1.402-0.549   c0.428-0.427,0.672-0.915,0.672-1.463C27.287,23.689,26.311,22.653,25.213,22.653z M30.092,19.542   c-0.305,0-0.549-0.183-0.549-0.549v-1.829c0-0.305,0.244-0.549,0.549-0.549h1.828c0.244,0,0.488,0.244,0.488,0.549v1.829   c0,0.306-0.184,0.549-0.488,0.549H30.092z"/></g></svg>